<?xml version="1.0" standalone="no"?>
<!DOCTYPE svg PUBLIC "-//W3C//DTD SVG 20010904//EN" "http://www.w3.org/TR/2001/REC-SVG-20010904/DTD/svg10.dtd">
<svg version="1.0" xmlns="http://www.w3.org/2000/svg" width="613.000000pt" height="141.000000pt" viewBox="0 0 613.000000 141.000000" preserveAspectRatio="xMidYMid meet">

  <g transform="translate(0.000000,141.000000) scale(0.100000,-0.100000)" fill="#2196f3
" stroke="none">
    <path d="M180 1075 l0 -95 90 0 90 0 0 95 0 95 -90 0 -90 0 0 -95z" />
    <path d="M603 1163 c26 -2 68 -2 95 0 26 2 4 3 -48 3 -52 0 -74 -1 -47 -3z" />
    <path d="M1846 960 c-64 -20 -106 -83 -106 -158 0 -54 25 -100 73 -136 40 -30
144 -30 184 0 98 72 99 205 3 276 -29 21 -112 31 -154 18z m115 -60 c10 -6 26
-24 34 -40 41 -79 -6 -159 -93 -160 -63 0 -102 40 -102 105 0 64 39 105 100
105 23 0 50 -5 61 -10z" />
    <path d="M3569 947 c-49 -25 -89 -89 -89 -141 0 -47 37 -113 78 -138 52 -32
133 -31 185 1 38 24 39 24 19 43 -18 19 -21 19 -50 4 -68 -35 -139 -9 -162 58
-15 45 -4 81 32 111 34 29 101 34 134 10 18 -12 24 -12 43 1 27 19 20 31 -33
55 -55 25 -104 24 -157 -4z" />
    <path d="M3903 949 c-118 -58 -118 -231 1 -288 52 -26 98 -26 152 -2 62 28 89
73 89 146 0 73 -27 118 -89 146 -54 24 -101 24 -153 -2z m156 -74 c22 -25 31
-46 31 -70 0 -24 -9 -45 -31 -70 -26 -30 -37 -35 -74 -35 -79 0 -131 72 -102
143 20 46 52 67 103 67 35 0 47 -5 73 -35z" />
    <path d="M1160 805 l0 -155 30 0 c29 0 30 1 30 49 l0 49 57 4 c48 4 61 10 85
37 40 44 39 101 -1 142 -28 28 -34 29 -115 29 l-86 0 0 -155z m151 95 c22 -12
26 -59 7 -78 -7 -7 -31 -12 -55 -12 l-43 0 0 50 0 50 36 0 c19 0 44 -5 55 -10z" />
    <path d="M1450 805 l0 -155 30 0 c30 0 30 1 30 55 0 54 1 55 28 55 23 0 34 -9
61 -55 30 -50 37 -55 68 -55 34 0 35 1 21 23 -8 12 -25 39 -37 60 l-23 38 25
19 c31 25 41 63 27 105 -17 52 -46 65 -145 65 l-85 0 0 -155z m166 80 c15 -23
15 -27 0 -50 -14 -21 -25 -25 -61 -25 l-45 0 0 50 0 50 45 0 c36 0 47 -4 61
-25z" />
    <path d="M2130 805 l0 -155 91 0 c88 0 92 1 121 30 26 27 30 36 24 68 -5 34
-21 55 -50 65 -7 3 -5 11 7 24 23 26 22 78 -3 103 -17 17 -33 20 -105 20 l-85
0 0 -155z m148 74 c4 -32 -18 -51 -55 -47 -25 3 -28 8 -31 41 l-3 38 43 -3
c38 -3 43 -6 46 -29z m14 -106 c39 -35 9 -73 -58 -73 l-44 0 0 45 0 45 42 0
c24 0 49 -7 60 -17z" />
    <path d="M2430 805 l0 -155 95 0 c95 0 95 0 95 25 0 24 -2 25 -65 25 l-65 0 0
130 0 130 -30 0 -30 0 0 -155z" />
    <path d="M2670 805 l0 -155 110 0 110 0 0 25 c0 25 -1 25 -80 25 l-80 0 0 40
0 40 70 0 70 0 0 30 0 30 -70 0 -70 0 0 35 0 35 75 0 c73 0 75 1 75 25 l0 25
-105 0 -105 0 0 -155z" />
    <path d="M2950 805 l0 -155 31 0 30 0 -3 95 c-2 52 0 95 4 95 5 0 29 -31 54
-70 26 -38 48 -70 50 -70 2 0 25 32 50 70 26 39 51 70 55 70 5 0 9 -43 9 -95
0 -95 0 -95 25 -95 l25 0 0 155 0 155 -27 0 c-24 0 -35 -12 -78 -80 -27 -43
-53 -79 -56 -80 -4 0 -30 36 -59 80 -45 69 -56 80 -81 80 l-29 0 0 -155z" />
    <path d="M4210 805 l0 -155 31 0 30 0 -3 95 c-2 52 0 95 4 95 5 0 29 -31 54
-70 26 -38 48 -70 50 -70 2 0 25 32 50 70 26 39 51 70 55 70 5 0 9 -43 9 -95
0 -95 0 -95 25 -95 l25 0 0 155 0 155 -27 0 c-24 0 -35 -12 -78 -80 -27 -43
-53 -79 -56 -80 -4 0 -30 36 -59 80 -45 69 -56 80 -81 80 l-29 0 0 -155z" />
    <path d="M4620 805 l0 -155 30 0 c29 0 30 1 30 50 l0 50 39 0 c86 0 131 38
131 111 0 40 -4 51 -31 73 -28 23 -39 26 -115 26 l-84 0 0 -155z m158 93 c7
-7 12 -24 12 -38 0 -37 -18 -50 -67 -50 l-43 0 0 50 0 50 43 0 c24 0 48 -5 55
-12z" />
    <path d="M4971 938 c-23 -59 -52 -130 -85 -205 l-35 -83 33 0 c25 0 35 6 44
25 11 23 16 25 86 25 70 0 74 -1 80 -25 5 -21 12 -25 41 -25 l34 0 -63 153
c-61 148 -63 152 -94 155 -26 3 -34 -1 -41 -20z m68 -119 c11 -29 21 -56 21
-60 0 -5 -22 -9 -50 -9 -27 0 -50 2 -50 4 0 14 44 116 50 116 4 0 17 -23 29
-51z" />
    <path d="M5220 805 l0 -155 30 0 30 0 0 100 c0 55 3 100 8 100 4 0 41 -45 82
-100 63 -83 80 -99 103 -100 l27 0 0 155 0 155 -30 0 -30 0 0 -95 c0 -52 -3
-95 -7 -95 -5 1 -39 43 -78 95 -63 85 -73 94 -102 95 l-33 0 0 -155z" />
    <path d="M5560 956 c0 -2 25 -46 55 -97 49 -84 55 -100 55 -151 0 -58 0 -58
30 -58 30 0 30 0 30 57 0 50 6 66 55 150 30 52 55 96 55 99 0 3 -15 4 -32 2
-28 -3 -37 -11 -68 -65 -19 -35 -37 -63 -40 -63 -3 0 -21 29 -40 65 -32 59
-38 65 -67 65 -18 0 -33 -2 -33 -4z" />
    <path d="M180 608 l0 -188 90 0 90 0 0 188 0 187 -90 0 -90 0 0 -187z" />
    <path d="M1771 478 c-5 -13 -16 -40 -24 -60 -14 -34 -8 -54 8 -28 9 14 72 12
78 -2 2 -7 7 -10 11 -7 9 8 -41 119 -54 119 -6 0 -14 -10 -19 -22z m33 -24
c10 -26 7 -34 -15 -34 -15 0 -19 4 -15 16 3 9 6 20 6 25 0 15 17 10 24 -7z" />
    <path d="M1960 441 l0 -61 39 0 c41 0 68 21 54 42 -4 7 -8 27 -8 43 0 28 -3
30 -42 33 l-43 3 0 -60z m71 24 c0 -5 -12 -11 -26 -13 -18 -2 -25 1 -25 13 0
12 7 15 25 13 14 -2 26 -7 26 -13z m5 -46 c8 -13 -13 -29 -38 -29 -11 0 -18 8
-18 20 0 15 7 20 24 20 14 0 28 -5 32 -11z" />
    <path d="M2100 440 l0 -60 43 2 c36 1 38 2 10 5 -25 3 -33 9 -33 24 0 14 7 19
30 19 17 0 30 5 30 10 0 6 -13 10 -30 10 -20 0 -30 5 -30 15 0 10 10 15 30 15
17 0 30 5 30 10 0 6 -18 10 -40 10 l-40 0 0 -60z" />
    <path d="M2220 490 c0 -5 7 -10 15 -10 11 0 15 -12 15 -50 0 -27 5 -50 10 -50
6 0 10 23 10 50 0 37 4 50 14 50 8 0 18 5 21 10 4 6 -12 10 -39 10 -25 0 -46
-4 -46 -10z" />
    <path d="M2340 490 c0 -5 7 -10 15 -10 11 0 15 -12 15 -50 0 -27 5 -50 10 -50
6 0 10 23 10 50 0 43 3 50 20 50 11 0 20 5 20 10 0 6 -20 10 -45 10 -25 0 -45
-4 -45 -10z" />
    <path d="M2470 440 l0 -60 43 2 c36 1 38 2 10 5 -25 3 -33 9 -33 24 0 14 7 19
30 19 17 0 30 5 30 10 0 6 -13 10 -30 10 -20 0 -30 5 -30 15 0 10 10 15 30 15
17 0 30 5 30 10 0 6 -18 10 -40 10 l-40 0 0 -60z" />
    <path d="M2601 438 c1 -35 3 -54 6 -43 8 34 20 37 41 11 11 -14 26 -26 32 -26
9 0 7 7 -5 20 -16 18 -16 20 -1 35 32 33 12 65 -41 65 l-33 0 1 -62z m67 25
c-2 -11 -14 -19 -31 -21 -22 -3 -27 1 -27 17 0 17 6 21 31 21 24 0 30 -4 27
-17z" />
    <path d="M2806 448 c25 -85 34 -89 54 -25 l13 42 14 -42 c8 -24 19 -43 23 -43
5 0 16 23 25 52 17 60 18 68 6 68 -5 0 -12 -18 -16 -40 -8 -50 -20 -51 -32 -3
-8 36 -33 58 -33 29 0 -8 -5 -27 -11 -43 l-12 -28 -12 39 c-6 22 -17 42 -23
44 -8 2 -6 -14 4 -50z" />
    <path d="M3002 444 c-13 -31 -20 -59 -17 -63 4 -3 10 1 15 10 10 17 65 15 76
-2 3 -5 9 -9 14 -9 5 0 -3 27 -17 60 -15 33 -31 60 -37 60 -6 0 -21 -25 -34
-56z m58 -16 c0 -4 -11 -8 -25 -8 -23 0 -24 2 -13 26 11 24 13 25 25 8 7 -10
13 -21 13 -26z" />
    <path d="M3134 466 c14 -19 26 -46 26 -60 0 -14 5 -26 10 -26 6 0 10 13 10 29
0 15 10 40 21 55 12 15 18 30 14 34 -3 4 -11 0 -15 -8 -28 -46 -29 -46 -51
-17 -11 15 -25 27 -31 27 -6 0 1 -15 16 -34z" />
    <path d="M3325 490 c3 -5 13 -10 21 -10 10 0 14 -13 14 -50 0 -27 5 -50 10
-50 6 0 10 23 10 50 0 37 4 50 14 50 8 0 18 5 21 10 4 6 -13 10 -45 10 -32 0
-49 -4 -45 -10z" />
    <path d="M3456 478 c-9 -12 -16 -29 -16 -38 0 -9 7 -26 16 -38 23 -33 83 -27
103 9 12 22 12 29 0 55 -19 40 -79 47 -103 12z m79 -8 c36 -40 -7 -96 -55 -70
-24 13 -26 52 -4 74 21 21 37 20 59 -4z" />
    <path d="M3680 440 l0 -60 38 0 c45 0 72 23 72 62 0 34 -30 58 -73 58 l-37 0
0 -60z m88 5 c4 -31 -18 -55 -50 -55 -15 0 -18 8 -18 46 0 45 0 45 33 42 27
-3 32 -7 35 -33z" />
    <path d="M3847 482 c-21 -23 -22 -66 -1 -86 22 -23 81 -21 94 3 15 29 12 67
-6 85 -21 22 -67 20 -87 -2z m73 -12 c24 -24 24 -29 4 -58 -17 -24 -43 -29
-62 -10 -18 18 -15 65 6 77 24 15 29 14 52 -9z" />
    <path d="M4070 441 l0 -61 39 0 c41 0 68 21 54 42 -4 7 -8 27 -8 43 0 28 -3
30 -42 33 l-43 3 0 -60z m71 24 c0 -5 -12 -11 -26 -13 -18 -2 -25 1 -25 13 0
12 7 15 25 13 14 -2 26 -7 26 -13z m5 -46 c8 -13 -13 -29 -38 -29 -11 0 -18 8
-18 20 0 15 7 20 24 20 14 0 28 -5 32 -11z" />
    <path d="M4210 452 c0 -26 5 -53 12 -60 15 -15 61 -15 76 0 15 15 17 112 2
103 -5 -3 -9 -24 -8 -46 1 -44 -11 -63 -38 -57 -15 2 -20 14 -22 56 -4 65 -22
69 -22 4z" />
    <path d="M4367 493 c-18 -18 -5 -45 29 -59 45 -19 39 -40 -10 -37 -22 2 -34
-1 -31 -7 9 -14 69 -12 83 2 21 21 13 39 -24 54 -41 17 -40 40 0 36 18 -2 25
1 21 7 -7 12 -58 15 -68 4z" />
    <path d="M4490 440 c0 -33 4 -60 10 -60 6 0 10 27 10 60 0 33 -4 60 -10 60 -6
0 -10 -27 -10 -60z" />
    <path d="M4562 438 c1 -50 2 -54 5 -20 2 23 7 42 11 42 4 0 20 -18 35 -40 16
-22 33 -40 38 -40 5 0 9 27 9 61 0 41 -3 58 -11 53 -6 -3 -9 -22 -7 -40 2 -19
1 -34 -3 -34 -3 0 -19 18 -34 40 -15 22 -32 40 -36 40 -5 0 -8 -28 -7 -62z" />
    <path d="M4710 440 l0 -60 48 2 c43 1 44 2 10 5 -30 3 -38 9 -38 24 0 14 7 19
30 19 17 0 30 5 30 10 0 6 -13 10 -30 10 -20 0 -30 5 -30 15 0 10 10 15 29 15
17 0 33 5 36 10 4 6 -12 10 -39 10 l-46 0 0 -60z" />
    <path d="M4840 485 c-16 -19 -5 -34 37 -51 44 -19 38 -40 -11 -37 -22 2 -34
-1 -31 -7 9 -15 71 -12 84 4 17 20 2 46 -30 53 -16 3 -32 10 -35 15 -10 15 18
28 45 21 17 -4 22 -2 17 6 -10 16 -61 14 -76 -4z" />
    <path d="M4972 488 c-7 -7 -12 -18 -12 -25 0 -12 11 -18 69 -38 11 -4 11 -8 1
-21 -9 -10 -22 -13 -43 -8 -20 4 -27 3 -23 -5 11 -18 76 -14 83 5 8 23 -9 47
-38 54 -38 9 -31 36 9 32 21 -1 31 2 27 8 -9 14 -58 13 -73 -2z" />
    <path d="M5090 390 c0 -5 5 -10 10 -10 6 0 10 5 10 10 0 6 -4 10 -10 10 -5 0
-10 -4 -10 -10z" />
  </g>
</svg>